# xmcd
#
# Track frame offsets:
#	150
#	15360
#	34625
#	55140
#	70185
#	85066
#	96636
#	112816
#	123445
#	134749
#	146731
#	159950
#
# Disc length: 2735 seconds
#
# Revision: 0
# Processed by: cddbd v1.5.1PL0 Copyright (c) Steve Scherf et al.
# Submitted via: audiograbber 1.83.01
#
DISCID=9d0aad0c
DTITLE=LC Blues - Les heures tardives
DYEAR=1900
DGENRE=Blues
TTITLE0=Acteur
TTITLE1=Sorry man
TTITLE2=Gamin
TTITLE3=Mais magneto
TTITLE4=Louisiane
TTITLE5=Le depart en vacances
TTITLE6=Boule de papier
TTITLE7=Obsession
TTITLE8=Annie France
TTITLE9=Seduction
TTITLE10=Bossa blues
TTITLE11=L'amitie deshonoree
EXTD=
EXTT0=
EXTT1=
EXTT2=
EXTT3=
EXTT4=
EXTT5=
EXTT6=
EXTT7=
EXTT8=
EXTT9=
EXTT10=
EXTT11=
PLAYORDER=
